999
Dxf file generated by netDxf https://github.com/haplokuon/netDxf, Copyright(C) 2009-2019 Daniel Carvajal, Licensed under LGPL
0
SECTION
2
HEADER
9
$ACADVER
1
AC1015
9
$DWGCODEPAGE
3
ANSI_1200
9
$HANDSEED
5
DA
9
$ANGBASE
50
0.0
9
$ANGDIR
70
0
9
$ATTMODE
70
1
9
$AUNITS
70
0
9
$AUPREC
70
0
9
$CECOLOR
62
256
9
$CELTSCALE
40
1.0
9
$CELTYPE
6
ByLayer
9
$CELWEIGHT
370
-1
9
$CLAYER
8
0
9
$CMLJUST
70
0
9
$CMLSCALE
40
20.0
9
$CMLSTYLE
2
Standard
9
$DIMSTYLE
2
Standard
9
$TEXTSIZE
40
2.5
9
$TEXTSTYLE
7
Standard
9
$LUNITS
70
2
9
$LUPREC
70
4
9
$MIRRTEXT
70
0
9
$EXTNAMES
290
1
9
$INSBASE
10
0.0
20
0.0
30
0.0
9
$INSUNITS
70
0
9
$LTSCALE
40
1.0
9
$LWDISPLAY
290
0
9
$PDMODE
70
0
9
$PDSIZE
40
0.0
9
$PLINEGEN
70
0
9
$PSLTSCALE
70
1
9
$TDCREATE
40
2459280.88259236
9
$TDUCREATE
40
2459280.54925903
9
$TDUPDATE
40
2459280.88259236
9
$TDUUPDATE
40
2459280.54925903
9
$TDINDWG
40
0.0
9
$UCSORG
10
0.0
20
0.0
30
0.0
9
$UCSXDIR
10
1.0
20
0.0
30
0.0
9
$UCSYDIR
10
0.0
20
1.0
30
0.0
9
$DIMADEC
70
0
9
$DIMALT
70
0
9
$DIMALTD
70
2
9
$DIMALTF
40
25.4
9
$DIMALTRND
40
0.0
9
$DIMALTTD
70
2
9
$DIMALTTZ
70
0
9
$DIMALTU
70
2
9
$DIMALTZ
70
0
9
$DIMAPOST
1

9
$DIMATFIT
70
3
9
$DIMAUNIT
70
0
9
$DIMASZ
40
0.18
9
$DIMAZIN
70
0
9
$DIMSAH
70
0
9
$DIMBLK
1

9
$DIMLDRBLK
1

9
$DIMCEN
40
0.09
9
$DIMCLRD
70
0
9
$DIMCLRE
70
0
9
$DIMCLRT
70
0
9
$DIMDEC
70
4
9
$DIMDLE
40
0.0
9
$DIMDLI
40
0.38
9
$DIMDSEP
70
46
9
$DIMEXE
40
0.18
9
$DIMEXO
40
0.0625
9
$DIMFXLON
70
0
9
$DIMFXL
40
1.0
9
$DIMGAP
40
0.09
9
$DIMJUST
70
0
9
$DIMLFAC
40
1.0
9
$DIMLUNIT
70
2
9
$DIMLWD
70
-2
9
$DIMLWE
70
-2
9
$DIMPOST
1

9
$DIMRND
40
0.0
9
$DIMSCALE
40
1.0
9
$DIMSD1
70
0
9
$DIMSD2
70
0
9
$DIMSE1
70
0
9
$DIMSE2
70
0
9
$DIMSOXD
70
1
9
$DIMTAD
70
0
9
$DIMTDEC
70
4
9
$DIMTFAC
40
1.0
9
$DIMTIH
70
0
9
$DIMTIX
70
0
9
$DIMTM
40
0.0
9
$DIMTMOVE
70
0
9
$DIMTOFL
70
0
9
$DIMTOH
70
0
9
$DIMTOL
70
0
9
$DIMLIM
70
0
9
$DIMTOLJ
70
1
9
$DIMTP
40
0.0
9
$DIMTXT
40
0.18
9
$DIMTXTDIRECTION
70
0
9
$DIMTZIN
70
0
9
$DIMZIN
70
0
9
$DIMFRAC
70
0
9
$DIMLTYPE
6
ByBlock
9
$DIMLTEX1
6
ByBlock
9
$DIMLTEX2
6
ByBlock
0
ENDSEC
0
SECTION
2
CLASSES
0
CLASS
1
RASTERVARIABLES
2
AcDbRasterVariables
3
ISM
90
0
280
0
281
0
0
ENDSEC
0
SECTION
2
TABLES
0
TABLE
2
APPID
5
4
330
0
100
AcDbSymbolTable
70
4
0
APPID
5
18
330
4
100
AcDbSymbolTableRecord
100
AcDbRegAppTableRecord
2
ACAD
70
0
0
APPID
5
CF
330
4
100
AcDbSymbolTableRecord
100
AcDbRegAppTableRecord
2
AcCmTransparency
70
0
0
APPID
5
D0
330
4
100
AcDbSymbolTableRecord
100
AcDbRegAppTableRecord
2
GradientColor1ACI
70
0
0
APPID
5
D1
330
4
100
AcDbSymbolTableRecord
100
AcDbRegAppTableRecord
2
GradientColor2ACI
70
0
0
ENDTAB
0
TABLE
2
VPORT
5
1
330
0
100
AcDbSymbolTable
70
1
0
VPORT
5
2
330
1
100
AcDbSymbolTableRecord
100
AcDbViewportTableRecord
2
*Active
70
0
10
0.0
20
0.0
11
1.0
21
1.0
12
0.0
22
0.0
13
0.0
23
0.0
14
0.5
24
0.5
15
10.0
25
10.0
16
0.0
26
0.0
36
1.0
17
0.0
27
0.0
37
0.0
40
10.0
41
1.0
75
0
76
1
0
ENDTAB
0
TABLE
2
LTYPE
5
6
330
0
100
AcDbSymbolTable
70
3
0
LTYPE
5
14
330
6
100
AcDbSymbolTableRecord
100
AcDbLinetypeTableRecord
2
Continuous
70
0
3
Solid line
72
65
73
0
40
0.0
0
LTYPE
5
15
330
6
100
AcDbSymbolTableRecord
100
AcDbLinetypeTableRecord
2
ByLayer
70
0
3

72
65
73
0
40
0.0
0
LTYPE
5
16
330
6
100
AcDbSymbolTableRecord
100
AcDbLinetypeTableRecord
2
ByBlock
70
0
3

72
65
73
0
40
0.0
0
ENDTAB
0
TABLE
2
LAYER
5
5
330
0
100
AcDbSymbolTable
70
1
0
LAYER
5
13
330
5
100
AcDbSymbolTableRecord
100
AcDbLayerTableRecord
2
0
70
0
62
7
6
Continuous
290
1
370
-3
390
0
0
ENDTAB
0
TABLE
2
STYLE
5
7
330
0
100
AcDbSymbolTable
70
2
0
STYLE
5
17
330
7
100
AcDbSymbolTableRecord
100
AcDbTextStyleTableRecord
2
Standard
3
simplex.shx
70
0
71
0
40
0.0
41
1.0
42
0.0
50
0.0
0
STYLE
5
6C
330
7
100
AcDbSymbolTableRecord
100
AcDbTextStyleTableRecord
2
Chinese text
3
simsun.ttf
70
0
71
0
40
0.0
41
1.0
42
0.0
50
0.0
0
ENDTAB
0
TABLE
2
DIMSTYLE
5
9
330
0
100
AcDbSymbolTable
70
1
100
AcDbDimStyleTable
0
DIMSTYLE
105
19
330
9
100
AcDbSymbolTableRecord
100
AcDbDimStyleTableRecord
2
Standard
3

4

40
1.0
41
0.18
42
0.0625
43
0.38
44
0.18
45
0.0
46
0.0
47
0.0
49
1.0
70
0
71
0
72
0
73
0
74
0
75
0
76
0
77
0
78
0
79
0
140
0.18
141
0.09
143
25.4
144
1.0
146
1.0
147
0.09
148
0.0
170
0
171
2
172
0
174
0
175
1
176
0
177
0
178
0
179
0
271
4
272
4
273
2
274
2
275
0
276
0
277
2
278
46
279
0
280
0
281
0
282
0
283
1
284
0
285
0
286
0
289
3
290
0
294
0
340
17
173
0
345
16
346
16
347
16
371
-2
372
-2
0
ENDTAB
0
TABLE
2
VIEW
5
3
330
0
100
AcDbSymbolTable
70
0
0
ENDTAB
0
TABLE
2
UCS
5
B
330
0
100
AcDbSymbolTable
70
0
0
ENDTAB
0
TABLE
2
BLOCK_RECORD
5
C
330
0
100
AcDbSymbolTable
70
2
0
BLOCK_RECORD
5
1B
330
C
100
AcDbSymbolTableRecord
100
AcDbBlockTableRecord
2
*Model_Space
340
1F
0
BLOCK_RECORD
5
CA
330
C
100
AcDbSymbolTableRecord
100
AcDbBlockTableRecord
2
*Paper_Space
340
CE
0
ENDTAB
0
ENDSEC
0
SECTION
2
BLOCKS
0
BLOCK
5
1D
330
1B
100
AcDbEntity
67
0
8
0
100
AcDbBlockBegin
2
*Model_Space
70
0
10
0.0
20
0.0
30
0.0
3
*Model_Space
0
ENDBLK
5
1C
330
1B
100
AcDbEntity
8
0
100
AcDbBlockEnd
0
BLOCK
5
CC
330
CA
100
AcDbEntity
67
1
8
0
100
AcDbBlockBegin
2
*Paper_Space
70
0
10
0.0
20
0.0
30
0.0
3
*Paper_Space
0
ENDBLK
5
CB
330
CA
100
AcDbEntity
8
0
100
AcDbBlockEnd
0
ENDSEC
0
SECTION
2
ENTITIES
0
LINE
5
21
330
1B
100
AcDbEntity
67
0
8
0
62
256
6
ByLayer
370
-1
48
1.0
60
0
100
AcDbLine
10
0.0
20
140.4
30
0.0
11
100.0
21
190.4
31
0.0
39
0.0
210
0.0
220
0.0
230
1.0
0
LINE
5
22
330
1B
100
AcDbEntity
67
0
8
0
62
256
6
ByLayer
370
-1
48
1.0
60
0
100
AcDbLine
10
100.0
20
190.4
30
0.0
11
122.5
21
190.4
31
0.0
39
0.0
210
0.0
220
0.0
230
1.0
0
LINE
5
23
330
1B
100
AcDbEntity
67
0
8
0
62
256
6
ByLayer
370
-1
48
1.0
60
0
100
AcDbLine
10
122.5
20
190.4
30
0.0
11
172.5
21
90.4000000000003
31
0.0
39
0.0
210
0.0
220
0.0
230
1.0
0
LINE
5
24
330
1B
100
AcDbEntity
67
0
8
0
62
256
6
ByLayer
370
-1
48
1.0
60
0
100
AcDbLine
10
172.5
20
90.4000000000003
30
0.0
11
292.5
21
54.4000000000004
31
0.0
39
0.0
210
0.0
220
0.0
230
1.0
0
LINE
5
25
330
1B
100
AcDbEntity
67
0
8
0
62
256
6
ByLayer
370
-1
48
1.0
60
0
100
AcDbLine
10
292.5
20
54.4000000000004
30
0.0
11
372.5
21
54.4000000000004
31
0.0
39
0.0
210
0.0
220
0.0
230
1.0
0
LINE
5
26
330
1B
100
AcDbEntity
67
0
8
0
62
256
6
ByLayer
370
-1
48
1.0
60
0
100
AcDbLine
10
372.5
20
54.4000000000004
30
0.0
11
432.5
21
45.4000000000001
31
0.0
39
0.0
210
0.0
220
0.0
230
1.0
0
LINE
5
27
330
1B
100
AcDbEntity
67
0
8
0
62
256
6
ByLayer
370
-1
48
1.0
60
0
100
AcDbLine
10
432.5
20
45.4000000000001
30
0.0
11
492.5
21
43.0
31
0.0
39
0.0
210
0.0
220
0.0
230
1.0
0
LINE
5
28
330
1B
100
AcDbEntity
67
0
8
0
62
256
6
ByLayer
370
-1
48
1.0
60
0
100
AcDbLine
10
492.5
20
43.0000000000007
30
0.0
11
612.5
21
25.0000000000007
31
0.0
39
0.0
210
0.0
220
0.0
230
1.0
0
LINE
5
29
330
1B
100
AcDbEntity
67
0
8
0
62
256
6
ByLayer
370
-1
48
1.0
60
0
100
AcDbLine
10
612.5
20
25.0
30
0.0
11
812.5
21
4.99999999999972
31
0.0
39
0.0
210
0.0
220
0.0
230
1.0
0
LINE
5
2A
330
1B
100
AcDbEntity
67
0
8
0
62
256
6
ByLayer
370
-1
48
1.0
60
0
100
AcDbLine
10
812.5
20
5.00000000000043
30
0.0
11
912.5
21
0.0000000000007105
31
0.0
39
0.0
210
0.0
220
0.0
230
1.0
0
LINE
5
2B
330
1B
100
AcDbEntity
67
0
8
0
62
256
6
ByLayer
370
-1
48
1.0
60
0
100
AcDbLine
10
912.5
20
0.0
30
0.0
11
1012.5
21
0.0
31
0.0
39
0.0
210
0.0
220
0.0
230
1.0
0
LINE
5
2C
330
1B
100
AcDbEntity
67
0
8
0
62
256
6
ByLayer
370
-1
48
1.0
60
0
100
AcDbLine
10
1012.5
20
0.0
30
0.0
11
1212.5
21
20.0000000000003
31
0.0
39
0.0
210
0.0
220
0.0
230
1.0
0
LINE
5
2D
330
1B
100
AcDbEntity
67
0
8
0
62
256
6
ByLayer
370
-1
48
1.0
60
0
100
AcDbLine
10
0.0
20
140.4
30
0.0
11
100.0
21
190.4
31
0.0
39
0.0
210
0.0
220
0.0
230
1.0
0
LINE
5
2E
330
1B
100
AcDbEntity
67
0
8
0
62
256
6
ByLayer
370
-1
48
1.0
60
0
100
AcDbLine
10
100.0
20
190.4
30
0.0
11
122.5
21
190.4
31
0.0
39
0.0
210
0.0
220
0.0
230
1.0
0
LINE
5
2F
330
1B
100
AcDbEntity
67
0
8
0
62
256
6
ByLayer
370
-1
48
1.0
60
0
100
AcDbLine
10
122.5
20
190.4
30
0.0
11
172.5
21
90.4000000000003
31
0.0
39
0.0
210
0.0
220
0.0
230
1.0
0
LINE
5
30
330
1B
100
AcDbEntity
67
0
8
0
62
256
6
ByLayer
370
-1
48
1.0
60
0
100
AcDbLine
10
172.5
20
90.4000000000003
30
0.0
11
292.5
21
54.4000000000004
31
0.0
39
0.0
210
0.0
220
0.0
230
1.0
0
LINE
5
31
330
1B
100
AcDbEntity
67
0
8
0
62
256
6
ByLayer
370
-1
48
1.0
60
0
100
AcDbLine
10
292.5
20
54.4000000000004
30
0.0
11
372.5
21
54.4000000000004
31
0.0
39
0.0
210
0.0
220
0.0
230
1.0
0
LINE
5
32
330
1B
100
AcDbEntity
67
0
8
0
62
256
6
ByLayer
370
-1
48
1.0
60
0
100
AcDbLine
10
372.5
20
54.4000000000004
30
0.0
11
432.5
21
45.4000000000001
31
0.0
39
0.0
210
0.0
220
0.0
230
1.0
0
LINE
5
33
330
1B
100
AcDbEntity
67
0
8
0
62
256
6
ByLayer
370
-1
48
1.0
60
0
100
AcDbLine
10
432.5
20
45.4000000000001
30
0.0
11
492.5
21
43.0
31
0.0
39
0.0
210
0.0
220
0.0
230
1.0
0
LINE
5
34
330
1B
100
AcDbEntity
67
0
8
0
62
256
6
ByLayer
370
-1
48
1.0
60
0
100
AcDbLine
10
492.5
20
43.0000000000007
30
0.0
11
612.5
21
25.0000000000007
31
0.0
39
0.0
210
0.0
220
0.0
230
1.0
0
LINE
5
35
330
1B
100
AcDbEntity
67
0
8
0
62
256
6
ByLayer
370
-1
48
1.0
60
0
100
AcDbLine
10
612.5
20
25.0
30
0.0
11
812.5
21
4.99999999999972
31
0.0
39
0.0
210
0.0
220
0.0
230
1.0
0
LINE
5
36
330
1B
100
AcDbEntity
67
0
8
0
62
256
6
ByLayer
370
-1
48
1.0
60
0
100
AcDbLine
10
812.5
20
5.00000000000043
30
0.0
11
912.5
21
0.0000000000007105
31
0.0
39
0.0
210
0.0
220
0.0
230
1.0
0
LINE
5
37
330
1B
100
AcDbEntity
67
0
8
0
62
256
6
ByLayer
370
-1
48
1.0
60
0
100
AcDbLine
10
912.5
20
0.0
30
0.0
11
1012.5
21
0.0
31
0.0
39
0.0
210
0.0
220
0.0
230
1.0
0
LINE
5
38
330
1B
100
AcDbEntity
67
0
8
0
62
256
6
ByLayer
370
-1
48
1.0
60
0
100
AcDbLine
10
1012.5
20
0.0
30
0.0
11
1212.5
21
20.0000000000003
31
0.0
39
0.0
210
0.0
220
0.0
230
1.0
0
LWPOLYLINE
5
39
330
1B
100
AcDbEntity
67
0
8
0
62
256
6
ByLayer
370
-1
48
1.0
60
0
100
AcDbPolyline
90
5
70
0
38
0.0
39
0.0
10
0.0
20
0.0
40
0.0
41
0.0
42
0.0
10
1212.5
20
0.0
40
0.0
41
0.0
42
0.0
10
1212.5
20
-40.0
40
0.0
41
0.0
42
0.0
10
0.0
20
-40.0
40
0.0
41
0.0
42
0.0
10
0.0
20
0.0
40
0.0
41
0.0
42
0.0
210
0.0
220
0.0
230
1.0
0
TEXT
5
3A
330
1B
100
AcDbEntity
67
0
8
0
62
256
6
ByLayer
370
-1
48
1.0
60
0
100
AcDbText
1
-10
10
1.0
20
-13.0
30
0.0
40
12.0
41
1.0
50
0.0
51
0.0
7
Standard
11
1.0
21
-13.0
31
0.0
210
0.0
220
0.0
230
1.0
71
0
72
0
100
AcDbText
73
0
0
TEXT
5
3B
330
1B
100
AcDbEntity
67
0
8
0
62
256
6
ByLayer
370
-1
48
1.0
60
0
100
AcDbText
1
100
10
99.0
20
-39.0
30
0.0
40
12.0
41
1.0
50
0.0
51
0.0
7
Standard
11
99.0
21
-39.0
31
0.0
210
0.0
220
0.0
230
1.0
71
0
72
2
100
AcDbText
73
0
0
LINE
5
3C
330
1B
100
AcDbEntity
67
0
8
0
62
256
6
ByLayer
370
-1
48
1.0
60
0
100
AcDbLine
10
0.0
20
-40.0
30
0.0
11
100.0
21
0.0
31
0.0
39
0.0
210
0.0
220
0.0
230
1.0
0
LINE
5
3D
330
1B
100
AcDbEntity
67
0
8
0
62
256
6
ByLayer
370
-1
48
1.0
60
0
100
AcDbLine
10
100.0
20
0.0
30
0.0
11
100.0
21
-40.0
31
0.0
39
0.0
210
0.0
220
0.0
230
1.0
0
TEXT
5
3E
330
1B
100
AcDbEntity
67
0
8
0
62
256
6
ByLayer
370
-1
48
1.0
60
0
100
AcDbText
1
0
10
111.25
20
-13.0
30
0.0
40
12.0
41
1.0
50
0.0
51
0.0
7
Standard
11
111.25
21
-13.0
31
0.0
210
0.0
220
0.0
230
1.0
71
0
72
1
100
AcDbText
73
0
0
TEXT
5
3F
330
1B
100
AcDbEntity
67
0
8
0
62
256
6
ByLayer
370
-1
48
1.0
60
0
100
AcDbText
1
22.5
10
111.25
20
-39.0
30
0.0
40
12.0
41
1.0
50
0.0
51
0.0
7
Standard
11
111.25
21
-39.0
31
0.0
210
0.0
220
0.0
230
1.0
71
0
72
1
100
AcDbText
73
0
0
LINE
5
40
330
1B
100
AcDbEntity
67
0
8
0
62
256
6
ByLayer
370
-1
48
1.0
60
0
100
AcDbLine
10
100.0
20
-20.0
30
0.0
11
122.5
21
-20.0
31
0.0
39
0.0
210
0.0
220
0.0
230
1.0
0
LINE
5
41
330
1B
100
AcDbEntity
67
0
8
0
62
256
6
ByLayer
370
-1
48
1.0
60
0
100
AcDbLine
10
122.5
20
0.0
30
0.0
11
122.5
21
-40.0
31
0.0
39
0.0
210
0.0
220
0.0
230
1.0
0
TEXT
5
42
330
1B
100
AcDbEntity
67
0
8
0
62
256
6
ByLayer
370
-1
48
1.0
60
0
100
AcDbText
1
40
10
171.5
20
-13.0
30
0.0
40
12.0
41
1.0
50
0.0
51
0.0
7
Standard
11
171.5
21
-13.0
31
0.0
210
0.0
220
0.0
230
1.0
71
0
72
2
100
AcDbText
73
0
0
TEXT
5
43
330
1B
100
AcDbEntity
67
0
8
0
62
256
6
ByLayer
370
-1
48
1.0
60
0
100
AcDbText
1
50
10
123.5
20
-39.0
30
0.0
40
12.0
41
1.0
50
0.0
51
0.0
7
Standard
11
123.5
21
-39.0
31
0.0
210
0.0
220
0.0
230
1.0
71
0
72
0
100
AcDbText
73
0
0
LINE
5
44
330
1B
100
AcDbEntity
67
0
8
0
62
256
6
ByLayer
370
-1
48
1.0
60
0
100
AcDbLine
10
122.5
20
0.0
30
0.0
11
172.5
21
-40.0
31
0.0
39
0.0
210
0.0
220
0.0
230
1.0
0
LINE
5
45
330
1B
100
AcDbEntity
67
0
8
0
62
256
6
ByLayer
370
-1
48
1.0
60
0
100
AcDbLine
10
172.5
20
0.0
30
0.0
11
172.5
21
-40.0
31
0.0
39
0.0
210
0.0
220
0.0
230
1.0
0
TEXT
5
46
330
1B
100
AcDbEntity
67
0
8
0
62
256
6
ByLayer
370
-1
48
1.0
60
0
100
AcDbText
1
6
10
291.5
20
-13.0
30
0.0
40
12.0
41
1.0
50
0.0
51
0.0
7
Standard
11
291.5
21
-13.0
31
0.0
210
0.0
220
0.0
230
1.0
71
0
72
2
100
AcDbText
73
0
0
TEXT
5
47
330
1B
100
AcDbEntity
67
0
8
0
62
256
6
ByLayer
370
-1
48
1.0
60
0
100
AcDbText
1
120
10
173.5
20
-39.0
30
0.0
40
12.0
41
1.0
50
0.0
51
0.0
7
Standard
11
173.5
21
-39.0
31
0.0
210
0.0
220
0.0
230
1.0
71
0
72
0
100
AcDbText
73
0
0
LINE
5
48
330
1B
100
AcDbEntity
67
0
8
0
62
256
6
ByLayer
370
-1
48
1.0
60
0
100
AcDbLine
10
172.5
20
0.0
30
0.0
11
292.5
21
-40.0
31
0.0
39
0.0
210
0.0
220
0.0
230
1.0
0
LINE
5
49
330
1B
100
AcDbEntity
67
0
8
0
62
256
6
ByLayer
370
-1
48
1.0
60
0
100
AcDbLine
10
292.5
20
0.0
30
0.0
11
292.5
21
-40.0
31
0.0
39
0.0
210
0.0
220
0.0
230
1.0
0
TEXT
5
4A
330
1B
100
AcDbEntity
67
0
8
0
62
256
6
ByLayer
370
-1
48
1.0
60
0
100
AcDbText
1
0
10
332.5
20
-13.0
30
0.0
40
12.0
41
1.0
50
0.0
51
0.0
7
Standard
11
332.5
21
-13.0
31
0.0
210
0.0
220
0.0
230
1.0
71
0
72
1
100
AcDbText
73
0
0
TEXT
5
4B
330
1B
100
AcDbEntity
67
0
8
0
62
256
6
ByLayer
370
-1
48
1.0
60
0
100
AcDbText
1
80
10
332.5
20
-39.0
30
0.0
40
12.0
41
1.0
50
0.0
51
0.0
7
Standard
11
332.5
21
-39.0
31
0.0
210
0.0
220
0.0
230
1.0
71
0
72
1
100
AcDbText
73
0
0
LINE
5
4C
330
1B
100
AcDbEntity
67
0
8
0
62
256
6
ByLayer
370
-1
48
1.0
60
0
100
AcDbLine
10
292.5
20
-20.0
30
0.0
11
372.5
21
-20.0
31
0.0
39
0.0
210
0.0
220
0.0
230
1.0
0
LINE
5
4D
330
1B
100
AcDbEntity
67
0
8
0
62
256
6
ByLayer
370
-1
48
1.0
60
0
100
AcDbLine
10
372.5
20
0.0
30
0.0
11
372.5
21
-40.0
31
0.0
39
0.0
210
0.0
220
0.0
230
1.0
0
TEXT
5
4E
330
1B
100
AcDbEntity
67
0
8
0
62
256
6
ByLayer
370
-1
48
1.0
60
0
100
AcDbText
1
3
10
431.5
20
-13.0
30
0.0
40
12.0
41
1.0
50
0.0
51
0.0
7
Standard
11
431.5
21
-13.0
31
0.0
210
0.0
220
0.0
230
1.0
71
0
72
2
100
AcDbText
73
0
0
TEXT
5
4F
330
1B
100
AcDbEntity
67
0
8
0
62
256
6
ByLayer
370
-1
48
1.0
60
0
100
AcDbText
1
60
10
373.5
20
-39.0
30
0.0
40
12.0
41
1.0
50
0.0
51
0.0
7
Standard
11
373.5
21
-39.0
31
0.0
210
0.0
220
0.0
230
1.0
71
0
72
0
100
AcDbText
73
0
0
LINE
5
50
330
1B
100
AcDbEntity
67
0
8
0
62
256
6
ByLayer
370
-1
48
1.0
60
0
100
AcDbLine
10
372.5
20
0.0
30
0.0
11
432.5
21
-40.0
31
0.0
39
0.0
210
0.0
220
0.0
230
1.0
0
LINE
5
51
330
1B
100
AcDbEntity
67
0
8
0
62
256
6
ByLayer
370
-1
48
1.0
60
0
100
AcDbLine
10
432.5
20
0.0
30
0.0
11
432.5
21
-40.0
31
0.0
39
0.0
210
0.0
220
0.0
230
1.0
0
TEXT
5
52
330
1B
100
AcDbEntity
67
0
8
0
62
256
6
ByLayer
370
-1
48
1.0
60
0
100
AcDbText
1
0.8
10
491.5
20
-13.0
30
0.0
40
12.0
41
1.0
50
0.0
51
0.0
7
Standard
11
491.5
21
-13.0
31
0.0
210
0.0
220
0.0
230
1.0
71
0
72
2
100
AcDbText
73
0
0
TEXT
5
53
330
1B
100
AcDbEntity
67
0
8
0
62
256
6
ByLayer
370
-1
48
1.0
60
0
100
AcDbText
1
60
10
433.5
20
-39.0
30
0.0
40
12.0
41
1.0
50
0.0
51
0.0
7
Standard
11
433.5
21
-39.0
31
0.0
210
0.0
220
0.0
230
1.0
71
0
72
0
100
AcDbText
73
0
0
LINE
5
54
330
1B
100
AcDbEntity
67
0
8
0
62
256
6
ByLayer
370
-1
48
1.0
60
0
100
AcDbLine
10
432.5
20
0.0
30
0.0
11
492.5
21
-40.0
31
0.0
39
0.0
210
0.0
220
0.0
230
1.0
0
LINE
5
55
330
1B
100
AcDbEntity
67
0
8
0
62
256
6
ByLayer
370
-1
48
1.0
60
0
100
AcDbLine
10
492.5
20
0.0
30
0.0
11
492.5
21
-40.0
31
0.0
39
0.0
210
0.0
220
0.0
230
1.0
0
TEXT
5
56
330
1B
100
AcDbEntity
67
0
8
0
62
256
6
ByLayer
370
-1
48
1.0
60
0
100
AcDbText
1
3
10
611.5
20
-13.0
30
0.0
40
12.0
41
1.0
50
0.0
51
0.0
7
Standard
11
611.5
21
-13.0
31
0.0
210
0.0
220
0.0
230
1.0
71
0
72
2
100
AcDbText
73
0
0
TEXT
5
57
330
1B
100
AcDbEntity
67
0
8
0
62
256
6
ByLayer
370
-1
48
1.0
60
0
100
AcDbText
1
120
10
493.5
20
-39.0
30
0.0
40
12.0
41
1.0
50
0.0
51
0.0
7
Standard
11
493.5
21
-39.0
31
0.0
210
0.0
220
0.0
230
1.0
71
0
72
0
100
AcDbText
73
0
0
LINE
5
58
330
1B
100
AcDbEntity
67
0
8
0
62
256
6
ByLayer
370
-1
48
1.0
60
0
100
AcDbLine
10
492.5
20
0.0
30
0.0
11
612.5
21
-40.0
31
0.0
39
0.0
210
0.0
220
0.0
230
1.0
0
LINE
5
59
330
1B
100
AcDbEntity
67
0
8
0
62
256
6
ByLayer
370
-1
48
1.0
60
0
100
AcDbLine
10
612.5
20
0.0
30
0.0
11
612.5
21
-40.0
31
0.0
39
0.0
210
0.0
220
0.0
230
1.0
0
TEXT
5
5A
330
1B
100
AcDbEntity
67
0
8
0
62
256
6
ByLayer
370
-1
48
1.0
60
0
100
AcDbText
1
2
10
811.5
20
-13.0
30
0.0
40
12.0
41
1.0
50
0.0
51
0.0
7
Standard
11
811.5
21
-13.0
31
0.0
210
0.0
220
0.0
230
1.0
71
0
72
2
100
AcDbText
73
0
0
TEXT
5
5B
330
1B
100
AcDbEntity
67
0
8
0
62
256
6
ByLayer
370
-1
48
1.0
60
0
100
AcDbText
1
200
10
613.5
20
-39.0
30
0.0
40
12.0
41
1.0
50
0.0
51
0.0
7
Standard
11
613.5
21
-39.0
31
0.0
210
0.0
220
0.0
230
1.0
71
0
72
0
100
AcDbText
73
0
0
LINE
5
5C
330
1B
100
AcDbEntity
67
0
8
0
62
256
6
ByLayer
370
-1
48
1.0
60
0
100
AcDbLine
10
612.5
20
0.0
30
0.0
11
812.5
21
-40.0
31
0.0
39
0.0
210
0.0
220
0.0
230
1.0
0
LINE
5
5D
330
1B
100
AcDbEntity
67
0
8
0
62
256
6
ByLayer
370
-1
48
1.0
60
0
100
AcDbLine
10
812.5
20
0.0
30
0.0
11
812.5
21
-40.0
31
0.0
39
0.0
210
0.0
220
0.0
230
1.0
0
TEXT
5
5E
330
1B
100
AcDbEntity
67
0
8
0
62
256
6
ByLayer
370
-1
48
1.0
60
0
100
AcDbText
1
1
10
911.5
20
-13.0
30
0.0
40
12.0
41
1.0
50
0.0
51
0.0
7
Standard
11
911.5
21
-13.0
31
0.0
210
0.0
220
0.0
230
1.0
71
0
72
2
100
AcDbText
73
0
0
TEXT
5
5F
330
1B
100
AcDbEntity
67
0
8
0
62
256
6
ByLayer
370
-1
48
1.0
60
0
100
AcDbText
1
100
10
813.5
20
-39.0
30
0.0
40
12.0
41
1.0
50
0.0
51
0.0
7
Standard
11
813.5
21
-39.0
31
0.0
210
0.0
220
0.0
230
1.0
71
0
72
0
100
AcDbText
73
0
0
LINE
5
60
330
1B
100
AcDbEntity
67
0
8
0
62
256
6
ByLayer
370
-1
48
1.0
60
0
100
AcDbLine
10
812.5
20
0.0
30
0.0
11
912.5
21
-40.0
31
0.0
39
0.0
210
0.0
220
0.0
230
1.0
0
LINE
5
61
330
1B
100
AcDbEntity
67
0
8
0
62
256
6
ByLayer
370
-1
48
1.0
60
0
100
AcDbLine
10
912.5
20
0.0
30
0.0
11
912.5
21
-40.0
31
0.0
39
0.0
210
0.0
220
0.0
230
1.0
0
TEXT
5
62
330
1B
100
AcDbEntity
67
0
8
0
62
256
6
ByLayer
370
-1
48
1.0
60
0
100
AcDbText
1
0
10
962.5
20
-13.0
30
0.0
40
12.0
41
1.0
50
0.0
51
0.0
7
Standard
11
962.5
21
-13.0
31
0.0
210
0.0
220
0.0
230
1.0
71
0
72
1
100
AcDbText
73
0
0
TEXT
5
63
330
1B
100
AcDbEntity
67
0
8
0
62
256
6
ByLayer
370
-1
48
1.0
60
0
100
AcDbText
1
100
10
962.5
20
-39.0
30
0.0
40
12.0
41
1.0
50
0.0
51
0.0
7
Standard
11
962.5
21
-39.0
31
0.0
210
0.0
220
0.0
230
1.0
71
0
72
1
100
AcDbText
73
0
0
LINE
5
64
330
1B
100
AcDbEntity
67
0
8
0
62
256
6
ByLayer
370
-1
48
1.0
60
0
100
AcDbLine
10
912.5
20
-20.0
30
0.0
11
1012.5
21
-20.0
31
0.0
39
0.0
210
0.0
220
0.0
230
1.0
0
LINE
5
65
330
1B
100
AcDbEntity
67
0
8
0
62
256
6
ByLayer
370
-1
48
1.0
60
0
100
AcDbLine
10
1012.5
20
0.0
30
0.0
11
1012.5
21
-40.0
31
0.0
39
0.0
210
0.0
220
0.0
230
1.0
0
TEXT
5
66
330
1B
100
AcDbEntity
67
0
8
0
62
256
6
ByLayer
370
-1
48
1.0
60
0
100
AcDbText
1
-2
10
1013.5
20
-13.0
30
0.0
40
12.0
41
1.0
50
0.0
51
0.0
7
Standard
11
1013.5
21
-13.0
31
0.0
210
0.0
220
0.0
230
1.0
71
0
72
0
100
AcDbText
73
0
0
TEXT
5
67
330
1B
100
AcDbEntity
67
0
8
0
62
256
6
ByLayer
370
-1
48
1.0
60
0
100
AcDbText
1
200
10
1211.5
20
-39.0
30
0.0
40
12.0
41
1.0
50
0.0
51
0.0
7
Standard
11
1211.5
21
-39.0
31
0.0
210
0.0
220
0.0
230
1.0
71
0
72
2
100
AcDbText
73
0
0
LINE
5
68
330
1B
100
AcDbEntity
67
0
8
0
62
256
6
ByLayer
370
-1
48
1.0
60
0
100
AcDbLine
10
1012.5
20
-40.0
30
0.0
11
1212.5
21
0.0
31
0.0
39
0.0
210
0.0
220
0.0
230
1.0
0
LINE
5
69
330
1B
100
AcDbEntity
67
0
8
0
62
256
6
ByLayer
370
-1
48
1.0
60
0
100
AcDbLine
10
1212.5
20
0.0
30
0.0
11
1212.5
21
-40.0
31
0.0
39
0.0
210
0.0
220
0.0
230
1.0
0
LWPOLYLINE
5
6A
330
1B
100
AcDbEntity
67
0
8
0
62
256
6
ByLayer
370
-1
48
1.0
60
0
100
AcDbPolyline
90
5
70
0
38
0.0
39
0.0
10
0.0
20
0.0
40
0.0
41
0.0
42
0.0
10
-120.0
20
0.0
40
0.0
41
0.0
42
0.0
10
-120.0
20
-40.0
40
0.0
41
0.0
42
0.0
10
0.0
20
-40.0
40
0.0
41
0.0
42
0.0
10
0.0
20
0.0
40
0.0
41
0.0
42
0.0
210
0.0
220
0.0
230
1.0
0
TEXT
5
6B
330
1B
100
AcDbEntity
67
0
8
0
62
256
6
ByLayer
370
-1
48
1.0
60
0
100
AcDbText
1
\U+8BBE\U+8BA1\U+7EB5\U+65AD\U+9762
10
-60.0
20
-20.0
30
0.0
40
12.0
41
1.0
50
0.0
51
0.0
7
Chinese text
11
-60.0
21
-20.0
31
0.0
210
0.0
220
0.0
230
1.0
71
0
72
1
100
AcDbText
73
2
0
TEXT
5
6D
330
1B
100
AcDbEntity
67
0
8
0
62
256
6
ByLayer
370
-1
48
1.0
60
0
100
AcDbText
1
102
10
100.0
20
-123.0
30
0.0
40
12.0
41
1.0
50
90.0
51
0.0
7
Standard
11
100.0
21
-123.0
31
0.0
210
0.0
220
0.0
230
1.0
71
0
72
0
100
AcDbText
73
0
0
TEXT
5
6E
330
1B
100
AcDbEntity
67
0
8
0
62
256
6
ByLayer
370
-1
48
1.0
60
0
100
AcDbText
1
0
10
100.0
20
-207.0
30
0.0
40
12.0
41
1.0
50
90.0
51
0.0
7
Standard
11
100.0
21
-207.0
31
0.0
210
0.0
220
0.0
230
1.0
71
0
72
0
100
AcDbText
73
0
0
TEXT
5
6F
330
1B
100
AcDbEntity
67
0
8
0
62
256
6
ByLayer
370
-1
48
1.0
60
0
100
AcDbText
1
102
10
100.0
20
-291.0
30
0.0
40
12.0
41
1.0
50
90.0
51
0.0
7
Standard
11
100.0
21
-291.0
31
0.0
210
0.0
220
0.0
230
1.0
71
0
72
0
100
AcDbText
73
0
0
TEXT
5
70
330
1B
100
AcDbEntity
67
0
8
0
62
256
6
ByLayer
370
-1
48
1.0
60
0
100
AcDbText
1
102
10
122.5
20
-123.0
30
0.0
40
12.0
41
1.0
50
90.0
51
0.0
7
Standard
11
122.5
21
-123.0
31
0.0
210
0.0
220
0.0
230
1.0
71
0
72
0
100
AcDbText
73
0
0
TEXT
5
71
330
1B
100
AcDbEntity
67
0
8
0
62
256
6
ByLayer
370
-1
48
1.0
60
0
100
AcDbText
1
0
10
122.5
20
-207.0
30
0.0
40
12.0
41
1.0
50
90.0
51
0.0
7
Standard
11
122.5
21
-207.0
31
0.0
210
0.0
220
0.0
230
1.0
71
0
72
0
100
AcDbText
73
0
0
TEXT
5
72
330
1B
100
AcDbEntity
67
0
8
0
62
256
6
ByLayer
370
-1
48
1.0
60
0
100
AcDbText
1
102
10
122.5
20
-291.0
30
0.0
40
12.0
41
1.0
50
90.0
51
0.0
7
Standard
11
122.5
21
-291.0
31
0.0
210
0.0
220
0.0
230
1.0
71
0
72
0
100
AcDbText
73
0
0
TEXT
5
73
330
1B
100
AcDbEntity
67
0
8
0
62
256
6
ByLayer
370
-1
48
1.0
60
0
100
AcDbText
1
100
10
172.5
20
-123.0
30
0.0
40
12.0
41
1.0
50
90.0
51
0.0
7
Standard
11
172.5
21
-123.0
31
0.0
210
0.0
220
0.0
230
1.0
71
0
72
0
100
AcDbText
73
0
0
TEXT
5
74
330
1B
100
AcDbEntity
67
0
8
0
62
256
6
ByLayer
370
-1
48
1.0
60
0
100
AcDbText
1
0
10
172.5
20
-207.0
30
0.0
40
12.0
41
1.0
50
90.0
51
0.0
7
Standard
11
172.5
21
-207.0
31
0.0
210
0.0
220
0.0
230
1.0
71
0
72
0
100
AcDbText
73
0
0
TEXT
5
75
330
1B
100
AcDbEntity
67
0
8
0
62
256
6
ByLayer
370
-1
48
1.0
60
0
100
AcDbText
1
100
10
172.5
20
-291.0
30
0.0
40
12.0
41
1.0
50
90.0
51
0.0
7
Standard
11
172.5
21
-291.0
31
0.0
210
0.0
220
0.0
230
1.0
71
0
72
0
100
AcDbText
73
0
0
TEXT
5
76
330
1B
100
AcDbEntity
67
0
8
0
62
256
6
ByLayer
370
-1
48
1.0
60
0
100
AcDbText
1
99.28
10
292.5
20
-123.0
30
0.0
40
12.0
41
1.0
50
90.0
51
0.0
7
Standard
11
292.5
21
-123.0
31
0.0
210
0.0
220
0.0
230
1.0
71
0
72
0
100
AcDbText
73
0
0
TEXT
5
77
330
1B
100
AcDbEntity
67
0
8
0
62
256
6
ByLayer
370
-1
48
1.0
60
0
100
AcDbText
1
0
10
292.5
20
-207.0
30
0.0
40
12.0
41
1.0
50
90.0
51
0.0
7
Standard
11
292.5
21
-207.0
31
0.0
210
0.0
220
0.0
230
1.0
71
0
72
0
100
AcDbText
73
0
0
TEXT
5
78
330
1B
100
AcDbEntity
67
0
8
0
62
256
6
ByLayer
370
-1
48
1.0
60
0
100
AcDbText
1
99.28
10
292.5
20
-291.0
30
0.0
40
12.0
41
1.0
50
90.0
51
0.0
7
Standard
11
292.5
21
-291.0
31
0.0
210
0.0
220
0.0
230
1.0
71
0
72
0
100
AcDbText
73
0
0
TEXT
5
79
330
1B
100
AcDbEntity
67
0
8
0
62
256
6
ByLayer
370
-1
48
1.0
60
0
100
AcDbText
1
99.28
10
372.5
20
-123.0
30
0.0
40
12.0
41
1.0
50
90.0
51
0.0
7
Standard
11
372.5
21
-123.0
31
0.0
210
0.0
220
0.0
230
1.0
71
0
72
0
100
AcDbText
73
0
0
TEXT
5
7A
330
1B
100
AcDbEntity
67
0
8
0
62
256
6
ByLayer
370
-1
48
1.0
60
0
100
AcDbText
1
0
10
372.5
20
-207.0
30
0.0
40
12.0
41
1.0
50
90.0
51
0.0
7
Standard
11
372.5
21
-207.0
31
0.0
210
0.0
220
0.0
230
1.0
71
0
72
0
100
AcDbText
73
0
0
TEXT
5
7B
330
1B
100
AcDbEntity
67
0
8
0
62
256
6
ByLayer
370
-1
48
1.0
60
0
100
AcDbText
1
99.28
10
372.5
20
-291.0
30
0.0
40
12.0
41
1.0
50
90.0
51
0.0
7
Standard
11
372.5
21
-291.0
31
0.0
210
0.0
220
0.0
230
1.0
71
0
72
0
100
AcDbText
73
0
0
TEXT
5
7C
330
1B
100
AcDbEntity
67
0
8
0
62
256
6
ByLayer
370
-1
48
1.0
60
0
100
AcDbText
1
99.1
10
432.5
20
-123.0
30
0.0
40
12.0
41
1.0
50
90.0
51
0.0
7
Standard
11
432.5
21
-123.0
31
0.0
210
0.0
220
0.0
230
1.0
71
0
72
0
100
AcDbText
73
0
0
TEXT
5
7D
330
1B
100
AcDbEntity
67
0
8
0
62
256
6
ByLayer
370
-1
48
1.0
60
0
100
AcDbText
1
0
10
432.5
20
-207.0
30
0.0
40
12.0
41
1.0
50
90.0
51
0.0
7
Standard
11
432.5
21
-207.0
31
0.0
210
0.0
220
0.0
230
1.0
71
0
72
0
100
AcDbText
73
0
0
TEXT
5
7E
330
1B
100
AcDbEntity
67
0
8
0
62
256
6
ByLayer
370
-1
48
1.0
60
0
100
AcDbText
1
99.1
10
432.5
20
-291.0
30
0.0
40
12.0
41
1.0
50
90.0
51
0.0
7
Standard
11
432.5
21
-291.0
31
0.0
210
0.0
220
0.0
230
1.0
71
0
72
0
100
AcDbText
73
0
0
TEXT
5
7F
330
1B
100
AcDbEntity
67
0
8
0
62
256
6
ByLayer
370
-1
48
1.0
60
0
100
AcDbText
1
99.052
10
492.5
20
-123.0
30
0.0
40
12.0
41
1.0
50
90.0
51
0.0
7
Standard
11
492.5
21
-123.0
31
0.0
210
0.0
220
0.0
230
1.0
71
0
72
0
100
AcDbText
73
0
0
TEXT
5
80
330
1B
100
AcDbEntity
67
0
8
0
62
256
6
ByLayer
370
-1
48
1.0
60
0
100
AcDbText
1
0
10
492.5
20
-207.0
30
0.0
40
12.0
41
1.0
50
90.0
51
0.0
7
Standard
11
492.5
21
-207.0
31
0.0
210
0.0
220
0.0
230
1.0
71
0
72
0
100
AcDbText
73
0
0
TEXT
5
81
330
1B
100
AcDbEntity
67
0
8
0
62
256
6
ByLayer
370
-1
48
1.0
60
0
100
AcDbText
1
99.052
10
492.5
20
-291.0
30
0.0
40
12.0
41
1.0
50
90.0
51
0.0
7
Standard
11
492.5
21
-291.0
31
0.0
210
0.0
220
0.0
230
1.0
71
0
72
0
100
AcDbText
73
0
0
TEXT
5
82
330
1B
100
AcDbEntity
67
0
8
0
62
256
6
ByLayer
370
-1
48
1.0
60
0
100
AcDbText
1
98.692
10
612.5
20
-123.0
30
0.0
40
12.0
41
1.0
50
90.0
51
0.0
7
Standard
11
612.5
21
-123.0
31
0.0
210
0.0
220
0.0
230
1.0
71
0
72
0
100
AcDbText
73
0
0
TEXT
5
83
330
1B
100
AcDbEntity
67
0
8
0
62
256
6
ByLayer
370
-1
48
1.0
60
0
100
AcDbText
1
0
10
612.5
20
-207.0
30
0.0
40
12.0
41
1.0
50
90.0
51
0.0
7
Standard
11
612.5
21
-207.0
31
0.0
210
0.0
220
0.0
230
1.0
71
0
72
0
100
AcDbText
73
0
0
TEXT
5
84
330
1B
100
AcDbEntity
67
0
8
0
62
256
6
ByLayer
370
-1
48
1.0
60
0
100
AcDbText
1
98.692
10
612.5
20
-291.0
30
0.0
40
12.0
41
1.0
50
90.0
51
0.0
7
Standard
11
612.5
21
-291.0
31
0.0
210
0.0
220
0.0
230
1.0
71
0
72
0
100
AcDbText
73
0
0
TEXT
5
85
330
1B
100
AcDbEntity
67
0
8
0
62
256
6
ByLayer
370
-1
48
1.0
60
0
100
AcDbText
1
98.292
10
812.5
20
-123.0
30
0.0
40
12.0
41
1.0
50
90.0
51
0.0
7
Standard
11
812.5
21
-123.0
31
0.0
210
0.0
220
0.0
230
1.0
71
0
72
0
100
AcDbText
73
0
0
TEXT
5
86
330
1B
100
AcDbEntity
67
0
8
0
62
256
6
ByLayer
370
-1
48
1.0
60
0
100
AcDbText
1
0
10
812.5
20
-207.0
30
0.0
40
12.0
41
1.0
50
90.0
51
0.0
7
Standard
11
812.5
21
-207.0
31
0.0
210
0.0
220
0.0
230
1.0
71
0
72
0
100
AcDbText
73
0
0
TEXT
5
87
330
1B
100
AcDbEntity
67
0
8
0
62
256
6
ByLayer
370
-1
48
1.0
60
0
100
AcDbText
1
98.292
10
812.5
20
-291.0
30
0.0
40
12.0
41
1.0
50
90.0
51
0.0
7
Standard
11
812.5
21
-291.0
31
0.0
210
0.0
220
0.0
230
1.0
71
0
72
0
100
AcDbText
73
0
0
TEXT
5
88
330
1B
100
AcDbEntity
67
0
8
0
62
256
6
ByLayer
370
-1
48
1.0
60
0
100
AcDbText
1
98.192
10
912.5
20
-123.0
30
0.0
40
12.0
41
1.0
50
90.0
51
0.0
7
Standard
11
912.5
21
-123.0
31
0.0
210
0.0
220
0.0
230
1.0
71
0
72
0
100
AcDbText
73
0
0
TEXT
5
89
330
1B
100
AcDbEntity
67
0
8
0
62
256
6
ByLayer
370
-1
48
1.0
60
0
100
AcDbText
1
0
10
912.5
20
-207.0
30
0.0
40
12.0
41
1.0
50
90.0
51
0.0
7
Standard
11
912.5
21
-207.0
31
0.0
210
0.0
220
0.0
230
1.0
71
0
72
0
100
AcDbText
73
0
0
TEXT
5
8A
330
1B
100
AcDbEntity
67
0
8
0
62
256
6
ByLayer
370
-1
48
1.0
60
0
100
AcDbText
1
98.192
10
912.5
20
-291.0
30
0.0
40
12.0
41
1.0
50
90.0
51
0.0
7
Standard
11
912.5
21
-291.0
31
0.0
210
0.0
220
0.0
230
1.0
71
0
72
0
100
AcDbText
73
0
0
TEXT
5
8B
330
1B
100
AcDbEntity
67
0
8
0
62
256
6
ByLayer
370
-1
48
1.0
60
0
100
AcDbText
1
98.192
10
1012.5
20
-123.0
30
0.0
40
12.0
41
1.0
50
90.0
51
0.0
7
Standard
11
1012.5
21
-123.0
31
0.0
210
0.0
220
0.0
230
1.0
71
0
72
0
100
AcDbText
73
0
0
TEXT
5
8C
330
1B
100
AcDbEntity
67
0
8
0
62
256
6
ByLayer
370
-1
48
1.0
60
0
100
AcDbText
1
0
10
1012.5
20
-207.0
30
0.0
40
12.0
41
1.0
50
90.0
51
0.0
7
Standard
11
1012.5
21
-207.0
31
0.0
210
0.0
220
0.0
230
1.0
71
0
72
0
100
AcDbText
73
0
0
TEXT
5
8D
330
1B
100
AcDbEntity
67
0
8
0
62
256
6
ByLayer
370
-1
48
1.0
60
0
100
AcDbText
1
98.192
10
1012.5
20
-291.0
30
0.0
40
12.0
41
1.0
50
90.0
51
0.0
7
Standard
11
1012.5
21
-291.0
31
0.0
210
0.0
220
0.0
230
1.0
71
0
72
0
100
AcDbText
73
0
0
TEXT
5
8E
330
1B
100
AcDbEntity
67
0
8
0
62
256
6
ByLayer
370
-1
48
1.0
60
0
100
AcDbText
1
98.592
10
1212.5
20
-123.0
30
0.0
40
12.0
41
1.0
50
90.0
51
0.0
7
Standard
11
1212.5
21
-123.0
31
0.0
210
0.0
220
0.0
230
1.0
71
0
72
0
100
AcDbText
73
0
0
TEXT
5
8F
330
1B
100
AcDbEntity
67
0
8
0
62
256
6
ByLayer
370
-1
48
1.0
60
0
100
AcDbText
1
0
10
1212.5
20
-207.0
30
0.0
40
12.0
41
1.0
50
90.0
51
0.0
7
Standard
11
1212.5
21
-207.0
31
0.0
210
0.0
220
0.0
230
1.0
71
0
72
0
100
AcDbText
73
0
0
TEXT
5
90
330
1B
100
AcDbEntity
67
0
8
0
62
256
6
ByLayer
370
-1
48
1.0
60
0
100
AcDbText
1
98.592
10
1212.5
20
-291.0
30
0.0
40
12.0
41
1.0
50
90.0
51
0.0
7
Standard
11
1212.5
21
-291.0
31
0.0
210
0.0
220
0.0
230
1.0
71
0
72
0
100
AcDbText
73
0
0
LWPOLYLINE
5
91
330
1B
100
AcDbEntity
67
0
8
0
62
256
6
ByLayer
370
-1
48
1.0
60
0
100
AcDbPolyline
90
5
70
0
38
0.0
39
0.0
10
0.0
20
-40.0
40
0.0
41
0.0
42
0.0
10
-120.0
20
-40.0
40
0.0
41
0.0
42
0.0
10
-120.0
20
-124.0
40
0.0
41
0.0
42
0.0
10
0.0
20
-124.0
40
0.0
41
0.0
42
0.0
10
0.0
20
-40.0
40
0.0
41
0.0
42
0.0
210
0.0
220
0.0
230
1.0
0
TEXT
5
92
330
1B
100
AcDbEntity
67
0
8
0
62
256
6
ByLayer
370
-1
48
1.0
60
0
100
AcDbText
1
\U+8BBE\U+8BA1\U+9AD8\U+7A0B
10
-60.0
20
-82.0
30
0.0
40
12.0
41
1.0
50
0.0
51
0.0
7
Chinese text
11
-60.0
21
-82.0
31
0.0
210
0.0
220
0.0
230
1.0
71
0
72
1
100
AcDbText
73
2
0
LWPOLYLINE
5
93
330
1B
100
AcDbEntity
67
0
8
0
62
256
6
ByLayer
370
-1
48
1.0
60
0
100
AcDbPolyline
90
5
70
0
38
0.0
39
0.0
10
0.0
20
-40.0
40
0.0
41
0.0
42
0.0
10
-120.0
20
-40.0
40
0.0
41
0.0
42
0.0
10
-120.0
20
-208.0
40
0.0
41
0.0
42
0.0
10
0.0
20
-208.0
40
0.0
41
0.0
42
0.0
10
0.0
20
-40.0
40
0.0
41
0.0
42
0.0
210
0.0
220
0.0
230
1.0
0
TEXT
5
94
330
1B
100
AcDbEntity
67
0
8
0
62
256
6
ByLayer
370
-1
48
1.0
60
0
100
AcDbText
1
\U+9AD8\U+5DEE
10
-60.0
20
-166.0
30
0.0
40
12.0
41
1.0
50
0.0
51
0.0
7
Chinese text
11
-60.0
21
-166.0
31
0.0
210
0.0
220
0.0
230
1.0
71
0
72
1
100
AcDbText
73
2
0
LWPOLYLINE
5
95
330
1B
100
AcDbEntity
67
0
8
0
62
256
6
ByLayer
370
-1
48
1.0
60
0
100
AcDbPolyline
90
5
70
0
38
0.0
39
0.0
10
0.0
20
-40.0
40
0.0
41
0.0
42
0.0
10
-120.0
20
-40.0
40
0.0
41
0.0
42
0.0
10
-120.0
20
-292.0
40
0.0
41
0.0
42
0.0
10
0.0
20
-292.0
40
0.0
41
0.0
42
0.0
10
0.0
20
-40.0
40
0.0
41
0.0
42
0.0
210
0.0
220
0.0
230
1.0
0
TEXT
5
96
330
1B
100
AcDbEntity
67
0
8
0
62
256
6
ByLayer
370
-1
48
1.0
60
0
100
AcDbText
1
\U+65E2\U+6709\U+9AD8\U+7A0B
10
-60.0
20
-250.0
30
0.0
40
12.0
41
1.0
50
0.0
51
0.0
7
Chinese text
11
-60.0
21
-250.0
31
0.0
210
0.0
220
0.0
230
1.0
71
0
72
1
100
AcDbText
73
2
0
LWPOLYLINE
5
97
330
1B
100
AcDbEntity
67
0
8
0
62
256
6
ByLayer
370
-1
48
1.0
60
0
100
AcDbPolyline
90
5
70
0
38
0.0
39
0.0
10
0.0
20
-292.0
40
0.0
41
0.0
42
0.0
10
1212.5
20
-292.0
40
0.0
41
0.0
42
0.0
10
1212.5
20
-332.0
40
0.0
41
0.0
42
0.0
10
0.0
20
-332.0
40
0.0
41
0.0
42
0.0
10
0.0
20
-292.0
40
0.0
41
0.0
42
0.0
210
0.0
220
0.0
230
1.0
0
TEXT
5
98
330
1B
100
AcDbEntity
67
0
8
0
62
256
6
ByLayer
370
-1
48
1.0
60
0
100
AcDbText
1
-10
10
1.0
20
-305.0
30
0.0
40
12.0
41
1.0
50
0.0
51
0.0
7
Standard
11
1.0
21
-305.0
31
0.0
210
0.0
220
0.0
230
1.0
71
0
72
0
100
AcDbText
73
0
0
TEXT
5
99
330
1B
100
AcDbEntity
67
0
8
0
62
256
6
ByLayer
370
-1
48
1.0
60
0
100
AcDbText
1
100
10
99.0
20
-331.0
30
0.0
40
12.0
41
1.0
50
0.0
51
0.0
7
Standard
11
99.0
21
-331.0
31
0.0
210
0.0
220
0.0
230
1.0
71
0
72
2
100
AcDbText
73
0
0
LINE
5
9A
330
1B
100
AcDbEntity
67
0
8
0
62
256
6
ByLayer
370
-1
48
1.0
60
0
100
AcDbLine
10
0.0
20
-332.0
30
0.0
11
100.0
21
-292.0
31
0.0
39
0.0
210
0.0
220
0.0
230
1.0
0
LINE
5
9B
330
1B
100
AcDbEntity
67
0
8
0
62
256
6
ByLayer
370
-1
48
1.0
60
0
100
AcDbLine
10
100.0
20
-292.0
30
0.0
11
100.0
21
-332.0
31
0.0
39
0.0
210
0.0
220
0.0
230
1.0
0
TEXT
5
9C
330
1B
100
AcDbEntity
67
0
8
0
62
256
6
ByLayer
370
-1
48
1.0
60
0
100
AcDbText
1
0
10
111.25
20
-305.0
30
0.0
40
12.0
41
1.0
50
0.0
51
0.0
7
Standard
11
111.25
21
-305.0
31
0.0
210
0.0
220
0.0
230
1.0
71
0
72
1
100
AcDbText
73
0
0
TEXT
5
9D
330
1B
100
AcDbEntity
67
0
8
0
62
256
6
ByLayer
370
-1
48
1.0
60
0
100
AcDbText
1
22.5
10
111.25
20
-331.0
30
0.0
40
12.0
41
1.0
50
0.0
51
0.0
7
Standard
11
111.25
21
-331.0
31
0.0
210
0.0
220
0.0
230
1.0
71
0
72
1
100
AcDbText
73
0
0
LINE
5
9E
330
1B
100
AcDbEntity
67
0
8
0
62
256
6
ByLayer
370
-1
48
1.0
60
0
100
AcDbLine
10
100.0
20
-312.0
30
0.0
11
122.5
21
-312.0
31
0.0
39
0.0
210
0.0
220
0.0
230
1.0
0
LINE
5
9F
330
1B
100
AcDbEntity
67
0
8
0
62
256
6
ByLayer
370
-1
48
1.0
60
0
100
AcDbLine
10
122.5
20
-292.0
30
0.0
11
122.5
21
-332.0
31
0.0
39
0.0
210
0.0
220
0.0
230
1.0
0
TEXT
5
A0
330
1B
100
AcDbEntity
67
0
8
0
62
256
6
ByLayer
370
-1
48
1.0
60
0
100
AcDbText
1
40
10
171.5
20
-305.0
30
0.0
40
12.0
41
1.0
50
0.0
51
0.0
7
Standard
11
171.5
21
-305.0
31
0.0
210
0.0
220
0.0
230
1.0
71
0
72
2
100
AcDbText
73
0
0
TEXT
5
A1
330
1B
100
AcDbEntity
67
0
8
0
62
256
6
ByLayer
370
-1
48
1.0
60
0
100
AcDbText
1
50
10
123.5
20
-331.0
30
0.0
40
12.0
41
1.0
50
0.0
51
0.0
7
Standard
11
123.5
21
-331.0
31
0.0
210
0.0
220
0.0
230
1.0
71
0
72
0
100
AcDbText
73
0
0
LINE
5
A2
330
1B
100
AcDbEntity
67
0
8
0
62
256
6
ByLayer
370
-1
48
1.0
60
0
100
AcDbLine
10
122.5
20
-292.0
30
0.0
11
172.5
21
-332.0
31
0.0
39
0.0
210
0.0
220
0.0
230
1.0
0
LINE
5
A3
330
1B
100
AcDbEntity
67
0
8
0
62
256
6
ByLayer
370
-1
48
1.0
60
0
100
AcDbLine
10
172.5
20
-292.0
30
0.0
11
172.5
21
-332.0
31
0.0
39
0.0
210
0.0
220
0.0
230
1.0
0
TEXT
5
A4
330
1B
100
AcDbEntity
67
0
8
0
62
256
6
ByLayer
370
-1
48
1.0
60
0
100
AcDbText
1
6
10
291.5
20
-305.0
30
0.0
40
12.0
41
1.0
50
0.0
51
0.0
7
Standard
11
291.5
21
-305.0
31
0.0
210
0.0
220
0.0
230
1.0
71
0
72
2
100
AcDbText
73
0
0
TEXT
5
A5
330
1B
100
AcDbEntity
67
0
8
0
62
256
6
ByLayer
370
-1
48
1.0
60
0
100
AcDbText
1
120
10
173.5
20
-331.0
30
0.0
40
12.0
41
1.0
50
0.0
51
0.0
7
Standard
11
173.5
21
-331.0
31
0.0
210
0.0
220
0.0
230
1.0
71
0
72
0
100
AcDbText
73
0
0
LINE
5
A6
330
1B
100
AcDbEntity
67
0
8
0
62
256
6
ByLayer
370
-1
48
1.0
60
0
100
AcDbLine
10
172.5
20
-292.0
30
0.0
11
292.5
21
-332.0
31
0.0
39
0.0
210
0.0
220
0.0
230
1.0
0
LINE
5
A7
330
1B
100
AcDbEntity
67
0
8
0
62
256
6
ByLayer
370
-1
48
1.0
60
0
100
AcDbLine
10
292.5
20
-292.0
30
0.0
11
292.5
21
-332.0
31
0.0
39
0.0
210
0.0
220
0.0
230
1.0
0
TEXT
5
A8
330
1B
100
AcDbEntity
67
0
8
0
62
256
6
ByLayer
370
-1
48
1.0
60
0
100
AcDbText
1
0
10
332.5
20
-305.0
30
0.0
40
12.0
41
1.0
50
0.0
51
0.0
7
Standard
11
332.5
21
-305.0
31
0.0
210
0.0
220
0.0
230
1.0
71
0
72
1
100
AcDbText
73
0
0
TEXT
5
A9
330
1B
100
AcDbEntity
67
0
8
0
62
256
6
ByLayer
370
-1
48
1.0
60
0
100
AcDbText
1
80
10
332.5
20
-331.0
30
0.0
40
12.0
41
1.0
50
0.0
51
0.0
7
Standard
11
332.5
21
-331.0
31
0.0
210
0.0
220
0.0
230
1.0
71
0
72
1
100
AcDbText
73
0
0
LINE
5
AA
330
1B
100
AcDbEntity
67
0
8
0
62
256
6
ByLayer
370
-1
48
1.0
60
0
100
AcDbLine
10
292.5
20
-312.0
30
0.0
11
372.5
21
-312.0
31
0.0
39
0.0
210
0.0
220
0.0
230
1.0
0
LINE
5
AB
330
1B
100
AcDbEntity
67
0
8
0
62
256
6
ByLayer
370
-1
48
1.0
60
0
100
AcDbLine
10
372.5
20
-292.0
30
0.0
11
372.5
21
-332.0
31
0.0
39
0.0
210
0.0
220
0.0
230
1.0
0
TEXT
5
AC
330
1B
100
AcDbEntity
67
0
8
0
62
256
6
ByLayer
370
-1
48
1.0
60
0
100
AcDbText
1
3
10
431.5
20
-305.0
30
0.0
40
12.0
41
1.0
50
0.0
51
0.0
7
Standard
11
431.5
21
-305.0
31
0.0
210
0.0
220
0.0
230
1.0
71
0
72
2
100
AcDbText
73
0
0
TEXT
5
AD
330
1B
100
AcDbEntity
67
0
8
0
62
256
6
ByLayer
370
-1
48
1.0
60
0
100
AcDbText
1
60
10
373.5
20
-331.0
30
0.0
40
12.0
41
1.0
50
0.0
51
0.0
7
Standard
11
373.5
21
-331.0
31
0.0
210
0.0
220
0.0
230
1.0
71
0
72
0
100
AcDbText
73
0
0
LINE
5
AE
330
1B
100
AcDbEntity
67
0
8
0
62
256
6
ByLayer
370
-1
48
1.0
60
0
100
AcDbLine
10
372.5
20
-292.0
30
0.0
11
432.5
21
-332.0
31
0.0
39
0.0
210
0.0
220
0.0
230
1.0
0
LINE
5
AF
330
1B
100
AcDbEntity
67
0
8
0
62
256
6
ByLayer
370
-1
48
1.0
60
0
100
AcDbLine
10
432.5
20
-292.0
30
0.0
11
432.5
21
-332.0
31
0.0
39
0.0
210
0.0
220
0.0
230
1.0
0
TEXT
5
B0
330
1B
100
AcDbEntity
67
0
8
0
62
256
6
ByLayer
370
-1
48
1.0
60
0
100
AcDbText
1
0.8
10
491.5
20
-305.0
30
0.0
40
12.0
41
1.0
50
0.0
51
0.0
7
Standard
11
491.5
21
-305.0
31
0.0
210
0.0
220
0.0
230
1.0
71
0
72
2
100
AcDbText
73
0
0
TEXT
5
B1
330
1B
100
AcDbEntity
67
0
8
0
62
256
6
ByLayer
370
-1
48
1.0
60
0
100
AcDbText
1
60
10
433.5
20
-331.0
30
0.0
40
12.0
41
1.0
50
0.0
51
0.0
7
Standard
11
433.5
21
-331.0
31
0.0
210
0.0
220
0.0
230
1.0
71
0
72
0
100
AcDbText
73
0
0
LINE
5
B2
330
1B
100
AcDbEntity
67
0
8
0
62
256
6
ByLayer
370
-1
48
1.0
60
0
100
AcDbLine
10
432.5
20
-292.0
30
0.0
11
492.5
21
-332.0
31
0.0
39
0.0
210
0.0
220
0.0
230
1.0
0
LINE
5
B3
330
1B
100
AcDbEntity
67
0
8
0
62
256
6
ByLayer
370
-1
48
1.0
60
0
100
AcDbLine
10
492.5
20
-292.0
30
0.0
11
492.5
21
-332.0
31
0.0
39
0.0
210
0.0
220
0.0
230
1.0
0
TEXT
5
B4
330
1B
100
AcDbEntity
67
0
8
0
62
256
6
ByLayer
370
-1
48
1.0
60
0
100
AcDbText
1
3
10
611.5
20
-305.0
30
0.0
40
12.0
41
1.0
50
0.0
51
0.0
7
Standard
11
611.5
21
-305.0
31
0.0
210
0.0
220
0.0
230
1.0
71
0
72
2
100
AcDbText
73
0
0
TEXT
5
B5
330
1B
100
AcDbEntity
67
0
8
0
62
256
6
ByLayer
370
-1
48
1.0
60
0
100
AcDbText
1
120
10
493.5
20
-331.0
30
0.0
40
12.0
41
1.0
50
0.0
51
0.0
7
Standard
11
493.5
21
-331.0
31
0.0
210
0.0
220
0.0
230
1.0
71
0
72
0
100
AcDbText
73
0
0
LINE
5
B6
330
1B
100
AcDbEntity
67
0
8
0
62
256
6
ByLayer
370
-1
48
1.0
60
0
100
AcDbLine
10
492.5
20
-292.0
30
0.0
11
612.5
21
-332.0
31
0.0
39
0.0
210
0.0
220
0.0
230
1.0
0
LINE
5
B7
330
1B
100
AcDbEntity
67
0
8
0
62
256
6
ByLayer
370
-1
48
1.0
60
0
100
AcDbLine
10
612.5
20
-292.0
30
0.0
11
612.5
21
-332.0
31
0.0
39
0.0
210
0.0
220
0.0
230
1.0
0
TEXT
5
B8
330
1B
100
AcDbEntity
67
0
8
0
62
256
6
ByLayer
370
-1
48
1.0
60
0
100
AcDbText
1
2
10
811.5
20
-305.0
30
0.0
40
12.0
41
1.0
50
0.0
51
0.0
7
Standard
11
811.5
21
-305.0
31
0.0
210
0.0
220
0.0
230
1.0
71
0
72
2
100
AcDbText
73
0
0
TEXT
5
B9
330
1B
100
AcDbEntity
67
0
8
0
62
256
6
ByLayer
370
-1
48
1.0
60
0
100
AcDbText
1
200
10
613.5
20
-331.0
30
0.0
40
12.0
41
1.0
50
0.0
51
0.0
7
Standard
11
613.5
21
-331.0
31
0.0
210
0.0
220
0.0
230
1.0
71
0
72
0
100
AcDbText
73
0
0
LINE
5
BA
330
1B
100
AcDbEntity
67
0
8
0
62
256
6
ByLayer
370
-1
48
1.0
60
0
100
AcDbLine
10
612.5
20
-292.0
30
0.0
11
812.5
21
-332.0
31
0.0
39
0.0
210
0.0
220
0.0
230
1.0
0
LINE
5
BB
330
1B
100
AcDbEntity
67
0
8
0
62
256
6
ByLayer
370
-1
48
1.0
60
0
100
AcDbLine
10
812.5
20
-292.0
30
0.0
11
812.5
21
-332.0
31
0.0
39
0.0
210
0.0
220
0.0
230
1.0
0
TEXT
5
BC
330
1B
100
AcDbEntity
67
0
8
0
62
256
6
ByLayer
370
-1
48
1.0
60
0
100
AcDbText
1
1
10
911.5
20
-305.0
30
0.0
40
12.0
41
1.0
50
0.0
51
0.0
7
Standard
11
911.5
21
-305.0
31
0.0
210
0.0
220
0.0
230
1.0
71
0
72
2
100
AcDbText
73
0
0
TEXT
5
BD
330
1B
100
AcDbEntity
67
0
8
0
62
256
6
ByLayer
370
-1
48
1.0
60
0
100
AcDbText
1
100
10
813.5
20
-331.0
30
0.0
40
12.0
41
1.0
50
0.0
51
0.0
7
Standard
11
813.5
21
-331.0
31
0.0
210
0.0
220
0.0
230
1.0
71
0
72
0
100
AcDbText
73
0
0
LINE
5
BE
330
1B
100
AcDbEntity
67
0
8
0
62
256
6
ByLayer
370
-1
48
1.0
60
0
100
AcDbLine
10
812.5
20
-292.0
30
0.0
11
912.5
21
-332.0
31
0.0
39
0.0
210
0.0
220
0.0
230
1.0
0
LINE
5
BF
330
1B
100
AcDbEntity
67
0
8
0
62
256
6
ByLayer
370
-1
48
1.0
60
0
100
AcDbLine
10
912.5
20
-292.0
30
0.0
11
912.5
21
-332.0
31
0.0
39
0.0
210
0.0
220
0.0
230
1.0
0
TEXT
5
C0
330
1B
100
AcDbEntity
67
0
8
0
62
256
6
ByLayer
370
-1
48
1.0
60
0
100
AcDbText
1
0
10
962.5
20
-305.0
30
0.0
40
12.0
41
1.0
50
0.0
51
0.0
7
Standard
11
962.5
21
-305.0
31
0.0
210
0.0
220
0.0
230
1.0
71
0
72
1
100
AcDbText
73
0
0
TEXT
5
C1
330
1B
100
AcDbEntity
67
0
8
0
62
256
6
ByLayer
370
-1
48
1.0
60
0
100
AcDbText
1
100
10
962.5
20
-331.0
30
0.0
40
12.0
41
1.0
50
0.0
51
0.0
7
Standard
11
962.5
21
-331.0
31
0.0
210
0.0
220
0.0
230
1.0
71
0
72
1
100
AcDbText
73
0
0
LINE
5
C2
330
1B
100
AcDbEntity
67
0
8
0
62
256
6
ByLayer
370
-1
48
1.0
60
0
100
AcDbLine
10
912.5
20
-312.0
30
0.0
11
1012.5
21
-312.0
31
0.0
39
0.0
210
0.0
220
0.0
230
1.0
0
LINE
5
C3
330
1B
100
AcDbEntity
67
0
8
0
62
256
6
ByLayer
370
-1
48
1.0
60
0
100
AcDbLine
10
1012.5
20
-292.0
30
0.0
11
1012.5
21
-332.0
31
0.0
39
0.0
210
0.0
220
0.0
230
1.0
0
TEXT
5
C4
330
1B
100
AcDbEntity
67
0
8
0
62
256
6
ByLayer
370
-1
48
1.0
60
0
100
AcDbText
1
-2
10
1013.5
20
-305.0
30
0.0
40
12.0
41
1.0
50
0.0
51
0.0
7
Standard
11
1013.5
21
-305.0
31
0.0
210
0.0
220
0.0
230
1.0
71
0
72
0
100
AcDbText
73
0
0
TEXT
5
C5
330
1B
100
AcDbEntity
67
0
8
0
62
256
6
ByLayer
370
-1
48
1.0
60
0
100
AcDbText
1
200
10
1211.5
20
-331.0
30
0.0
40
12.0
41
1.0
50
0.0
51
0.0
7
Standard
11
1211.5
21
-331.0
31
0.0
210
0.0
220
0.0
230
1.0
71
0
72
2
100
AcDbText
73
0
0
LINE
5
C6
330
1B
100
AcDbEntity
67
0
8
0
62
256
6
ByLayer
370
-1
48
1.0
60
0
100
AcDbLine
10
1012.5
20
-332.0
30
0.0
11
1212.5
21
-292.0
31
0.0
39
0.0
210
0.0
220
0.0
230
1.0
0
LINE
5
C7
330
1B
100
AcDbEntity
67
0
8
0
62
256
6
ByLayer
370
-1
48
1.0
60
0
100
AcDbLine
10
1212.5
20
-292.0
30
0.0
11
1212.5
21
-332.0
31
0.0
39
0.0
210
0.0
220
0.0
230
1.0
0
LWPOLYLINE
5
C8
330
1B
100
AcDbEntity
67
0
8
0
62
256
6
ByLayer
370
-1
48
1.0
60
0
100
AcDbPolyline
90
5
70
0
38
0.0
39
0.0
10
0.0
20
-292.0
40
0.0
41
0.0
42
0.0
10
-120.0
20
-292.0
40
0.0
41
0.0
42
0.0
10
-120.0
20
-332.0
40
0.0
41
0.0
42
0.0
10
0.0
20
-332.0
40
0.0
41
0.0
42
0.0
10
0.0
20
-292.0
40
0.0
41
0.0
42
0.0
210
0.0
220
0.0
230
1.0
0
TEXT
5
C9
330
1B
100
AcDbEntity
67
0
8
0
62
256
6
ByLayer
370
-1
48
1.0
60
0
100
AcDbText
1
\U+65E2\U+6709\U+7EB5\U+65AD\U+9762
10
-60.0
20
-312.0
30
0.0
40
12.0
41
1.0
50
0.0
51
0.0
7
Chinese text
11
-60.0
21
-312.0
31
0.0
210
0.0
220
0.0
230
1.0
71
0
72
1
100
AcDbText
73
2
0
ENDSEC
0
SECTION
2
OBJECTS
0
DICTIONARY
5
D2
330
0
100
AcDbDictionary
280
0
281
1
3
ACAD_GROUP
350
D3
3
ACAD_LAYOUT
350
D4
3
ACAD_MLINESTYLE
350
D8
0
DICTIONARY
5
D3
330
D2
100
AcDbDictionary
280
0
281
1
0
DICTIONARY
5
D4
330
D2
100
AcDbDictionary
280
0
281
1
3
Model
350
1F
3
Layout1
350
CE
0
DICTIONARY
5
D8
330
D2
100
AcDbDictionary
280
0
281
1
3
Standard
350
1A
0
LAYOUT
5
1F
330
D4
100
AcDbPlotSettings
1

2
none_device
4
ISO_A4_(210.00_x_297.00_MM)
6

40
7.5
41
20.0
42
7.5
43
20.0
44
210.0
45
297.0
46
0.0
47
0.0
48
0.0
49
0.0
140
0.0
141
0.0
142
1.0
143
1.0
70
11952
72
1
73
1
74
1
7

75
0
76
0
77
2
78
300
147
1.0
148
0.0
149
0.0
100
AcDbLayout
1
Model
70
1
71
0
10
-20.0
20
-7.5
11
277.0
21
202.5
12
0.0
22
0.0
32
0.0
14
25.7
24
19.5
34
0.0
15
231.3
25
175.5
35
0.0
146
0.0
13
0.0
23
0.0
33
0.0
16
1.0
26
0.0
36
0.0
17
0.0
27
1.0
37
0.0
76
0
330
1B
0
LAYOUT
5
CE
330
D4
100
AcDbPlotSettings
1

2
none_device
4
ISO_A4_(210.00_x_297.00_MM)
6

40
7.5
41
20.0
42
7.5
43
20.0
44
210.0
45
297.0
46
0.0
47
0.0
48
0.0
49
0.0
140
0.0
141
0.0
142
1.0
143
1.0
70
688
72
1
73
1
74
1
7

75
0
76
0
77
2
78
300
147
1.0
148
0.0
149
0.0
100
AcDbLayout
1
Layout1
70
1
71
1
10
-20.0
20
-7.5
11
277.0
21
202.5
12
0.0
22
0.0
32
0.0
14
25.7
24
19.5
34
0.0
15
231.3
25
175.5
35
0.0
146
0.0
13
0.0
23
0.0
33
0.0
16
1.0
26
0.0
36
0.0
17
0.0
27
1.0
37
0.0
76
0
330
CA
0
MLINESTYLE
5
1A
330
D8
100
AcDbMlineStyle
2
Standard
70
0
3

62
256
51
90.0
52
90.0
71
2
49
0.5
62
256
6
ByLayer
49
-0.5
62
256
6
ByLayer
0
ENDSEC
0
EOF
